<svg width="25" height="25" viewBox="0 0 25 25" fill="none" xmlns="http://www.w3.org/2000/svg">
<g clip-path="url(#clip0_5_1214)">
<path d="M24.4885 12.7338C24.4885 11.7095 24.4069 10.9621 24.2301 10.187H12.739V14.8099H19.484C19.3481 15.9588 18.6138 17.6889 16.9819 18.8515L16.959 19.0063L20.5923 21.8711L20.844 21.8966C23.1558 19.7236 24.4885 16.5262 24.4885 12.7338Z" fill="#4285F4"/>
<path d="M12.739 24.9142C16.0435 24.9142 18.8177 23.8069 20.844 21.8969L16.9819 18.8517C15.9484 19.5853 14.5612 20.0974 12.739 20.0974C9.50248 20.0974 6.75551 17.9244 5.77629 14.9209L5.63276 14.9333L1.85483 17.9092L1.80542 18.049C3.81804 22.1182 7.95214 24.9142 12.739 24.9142Z" fill="#34A853"/>
<path d="M5.77634 14.9209C5.51797 14.1458 5.36844 13.3153 5.36844 12.4572C5.36844 11.599 5.51797 10.7685 5.76275 9.99343L5.75591 9.82835L1.93062 6.80469L1.80547 6.86528C0.975969 8.55392 0.5 10.4502 0.5 12.4572C0.5 14.4641 0.975969 16.3603 1.80547 18.049L5.77634 14.9209Z" fill="#FBBC05"/>
<path d="M12.739 4.8167C15.0372 4.8167 16.5875 5.8271 17.4714 6.67147L20.9255 3.23884C18.8042 1.23187 16.0435 0 12.739 0C7.95214 0 3.81804 2.7959 1.80542 6.86517L5.7627 9.99332C6.75551 6.98979 9.50248 4.8167 12.739 4.8167Z" fill="#EB4335"/>
</g>
<defs>
<clipPath id="clip0_5_1214">
<rect width="24" height="25" fill="white" transform="translate(0.5)"/>
</clipPath>
</defs>
</svg>
