<svg width="70" height="69" viewBox="0 0 70 69" fill="none" xmlns="http://www.w3.org/2000/svg">
<path fill-rule="evenodd" clip-rule="evenodd" d="M14.4897 5.75C12.2023 5.75 10.0085 6.6587 8.39095 8.2762C6.77345 9.89371 5.86475 12.0875 5.86475 14.375V60.375C5.86475 61.5378 6.56522 62.5862 7.63953 63.0312C8.71385 63.4762 9.95043 63.2302 10.7727 62.4079L21.4306 51.75H54.7397C57.0272 51.75 59.221 50.8413 60.8385 49.2238C62.456 47.6063 63.3647 45.4125 63.3647 43.125V14.375C63.3647 12.0875 62.456 9.8937 60.8385 8.2762C59.221 6.6587 57.0272 5.75 54.7397 5.75H14.4897ZM12.4568 12.3421C12.996 11.8029 13.7272 11.5 14.4897 11.5H54.7397C55.5022 11.5 56.2335 11.8029 56.7727 12.3421C57.3118 12.8812 57.6147 13.6125 57.6147 14.375V43.125C57.6147 43.8875 57.3118 44.6188 56.7727 45.1579C56.2335 45.6971 55.5022 46 54.7397 46H20.2397C19.4772 46 18.746 46.3029 18.2068 46.8421L11.6147 53.4341V14.375C11.6147 13.6125 11.9176 12.8812 12.4568 12.3421Z" fill="white"/>
</svg>
