<svg width="70" height="69" viewBox="0 0 70 69" fill="none" xmlns="http://www.w3.org/2000/svg">
<path fill-rule="evenodd" clip-rule="evenodd" d="M6.20038 5.75C4.61256 5.75 3.32538 7.03718 3.32538 8.625V51.75C3.32538 53.3378 4.61256 54.625 6.20038 54.625H26.3254C27.8504 54.625 29.3129 55.2308 30.3912 56.3091C31.4696 57.3875 32.0754 58.85 32.0754 60.375C32.0754 61.9628 33.3626 63.25 34.9504 63.25C36.5382 63.25 37.8254 61.9628 37.8254 60.375C37.8254 58.85 38.4312 57.3875 39.5095 56.3091C40.5878 55.2308 42.0504 54.625 43.5754 54.625H63.7004C65.2882 54.625 66.5754 53.3378 66.5754 51.75V8.625C66.5754 7.03718 65.2882 5.75 63.7004 5.75H46.4504C42.6379 5.75 38.9816 7.2645 36.2857 9.96034C35.8019 10.4441 35.3562 10.9589 34.9504 11.4999C34.5446 10.9589 34.0988 10.4441 33.615 9.96034C30.9192 7.2645 27.2629 5.75 23.4504 5.75H6.20038ZM37.8254 50.4157C39.5587 49.415 41.5392 48.875 43.5754 48.875H60.8254V11.5H46.4504C44.1629 11.5 41.9691 12.4087 40.3516 14.0262C38.7341 15.6437 37.8254 17.8375 37.8254 20.125V50.4157ZM32.0754 50.4157V20.125C32.0754 17.8375 31.1667 15.6437 29.5492 14.0262C27.9317 12.4087 25.7379 11.5 23.4504 11.5H9.07538V48.875H26.3254C28.3615 48.875 30.342 49.415 32.0754 50.4157Z" fill="white"/>
</svg>
