<svg width="70" height="67" viewBox="0 0 70 67" fill="none" xmlns="http://www.w3.org/2000/svg">
<path fill-rule="evenodd" clip-rule="evenodd" d="M35.2786 0C24.0705 0 14.9845 7.49923 14.9845 16.75C14.9845 26.0008 24.0705 33.5 35.2786 33.5C46.4868 33.5 55.5727 26.0008 55.5727 16.75C55.5727 7.49923 46.4868 0 35.2786 0ZM23.1022 16.75C23.1022 11.1995 28.5537 6.7 35.2786 6.7C42.0035 6.7 47.4551 11.1995 47.4551 16.75C47.4551 22.3005 42.0035 26.8 35.2786 26.8C28.5537 26.8 23.1022 22.3005 23.1022 16.75Z" fill="white"/>
<path d="M21.0727 40.2C15.6904 40.2 10.5285 41.9647 6.72263 45.106C2.91675 48.2472 0.778625 52.5076 0.778625 56.95V63.65C0.778625 65.5002 2.59582 67 4.83745 67C7.07908 67 8.89627 65.5002 8.89627 63.65V56.95C8.89627 54.2846 10.1791 51.7283 12.4627 49.8436C14.7462 47.9588 17.8433 46.9 21.0727 46.9H49.4845C52.7139 46.9 55.811 47.9588 58.0946 49.8436C60.3781 51.7283 61.661 54.2846 61.661 56.95V63.65C61.661 65.5002 63.4782 67 65.7198 67C67.9614 67 69.7786 65.5002 69.7786 63.65V56.95C69.7786 52.5076 67.6405 48.2472 63.8346 45.106C60.0287 41.9647 54.8668 40.2 49.4845 40.2H21.0727Z" fill="white"/>
</svg>
